name analog
datacolumns 19
datarows 24
range 0.6525 0.664
endheader
time	ground_force_vx	ground_force_vy	ground_force_vz	ground_force_px	ground_force_py	ground_force_pz	l_ground_force_vx	l_ground_force_vy	l_ground_force_vz	l_ground_force_px	l_ground_force_py	l_ground_force_pz	ground_torque_x	ground_torque_y	ground_torque_z	l_ground_torque_x	l_ground_torque_y	l_ground_torque_z
0.6525	-0.0	-0.0	-0.0	5.785850524902344	38.058685302734375	-308.3261108398437	-14.637279510498049	-41.71316146850586	-314.3854064941406	-0.0	-0.0	-0.0	-0.0	-0.0	-0.0	80269.9609375	38885.76171875	-9547.30859375
0.653	-0.0	-0.0	-0.0	6.155525207519531	38.05978012084961	-309.8920593261719	-14.422292709350586	-41.46026992797852	-310.99346923828125	-0.0	-0.0	-0.0	-0.0	-0.0	-0.0	79301.234375	38282.05078125	-9293.0703125
0.6535	-0.0	-0.0	-0.0	6.434473991394043	38.09592819213867	-310.6441650390625	-13.966193199157717	-40.894290924072266	-310.243896484375	-0.0	-0.0	-0.0	-0.0	-0.0	-0.0	78845.6328125	37999.5	-9177.904296875
0.654	-0.0	-0.0	-0.0	6.386081218719482	38.0847282409668	-312.2546691894531	-13.827679634094238	-40.64083862304688	-307.755126953125	-0.0	-0.0	-0.0	-0.0	-0.0	-0.0	78659.5546875	37474.53515625	-9220.3291015625
0.6545	-0.0	-0.0	-0.0	6.598970413208008	38.21333694458008	-311.50469970703125	-13.421329498291016	-40.37595748901367	-307.8493957519531	-0.0	-0.0	-0.0	-0.0	-0.0	-0.0	78456.65625	37048.703125	-9015.9326171875
0.655	-0.0	-0.0	-0.0	7.084110736846924	37.99589157104492	-312.3676452636719	-13.43177604675293	-40.4485969543457	-308.63922119140625	-0.0	-0.0	-0.0	-0.0	-0.0	-0.0	78319.578125	36781.453125	-8868.44921875
0.6555	-0.0	-0.0	-0.0	6.971653461456299	38.276611328125	-313.8857421875	-13.116079330444336	-39.98360824584961	-308.94757080078125	-0.0	-0.0	-0.0	-0.0	-0.0	-0.0	78697.671875	36245.0390625	-8850.595703125
0.656	-0.0	-0.0	-0.0	7.011687278747559	38.37528991699219	-313.9769897460937	-13.0272855758667	-39.54183197021485	-308.1969909667969	-0.0	-0.0	-0.0	-0.0	-0.0	-0.0	77912.40625	36364.12109375	-8698.86328125
0.6565	-0.0	-0.0	-0.0	7.783682823181152	38.57111740112305	-316.6436462402344	-13.457537651062012	-39.63005447387695	-305.8568115234375	-0.0	-0.0	-0.0	-0.0	-0.0	-0.0	77952.25	35760.69921875	-8935.2216796875
0.657	-0.0	-0.0	-0.0	7.734440326690674	38.58004379272461	-316.4300537109375	-12.561495780944824	-39.1397705078125	-307.98638916015625	-0.0	-0.0	-0.0	-0.0	-0.0	-0.0	77887.109375	35674.3671875	-8738.591796875
0.6575	-0.0	-0.0	-0.0	8.420928955078125	38.59346771240234	-314.544189453125	-12.52161979675293	-39.14812850952149	-306.2059936523437	-0.0	-0.0	-0.0	-0.0	-0.0	-0.0	77978.3359375	35304.0078125	-8499.9833984375
0.658	-0.0	-0.0	-0.0	8.88034439086914	38.0508918762207	-315.4205627441406	-12.57003116607666	-38.7116813659668	-305.56060791015625	-0.0	-0.0	-0.0	-0.0	-0.0	-0.0	77439.4375	34661.375	-8544.025390625
0.6585	-0.0	-0.0	-0.0	9.449015617370604	38.59346771240234	-315.77178955078125	-12.521753311157228	-38.82112121582031	-304.9454650878906	-0.0	-0.0	-0.0	-0.0	-0.0	-0.0	77338.859375	34163.171875	-8400.1142578125
0.659	-0.0	-0.0	-0.0	9.62103271484375	38.456275939941406	-316.6939392089844	-12.118999481201172	-38.39923095703125	-302.8497619628906	-0.0	-0.0	-0.0	-0.0	-0.0	-0.0	76979.140625	34122.53125	-8258.0224609375
0.6595	-0.0	-0.0	-0.0	10.14963150024414	38.74421691894531	-317.9164428710937	-12.21479034423828	-38.35879135131836	-302.5264587402344	-0.0	-0.0	-0.0	-0.0	-0.0	-0.0	76326.234375	33217.37890625	-8205.7060546875
0.66	-0.0	-0.0	-0.0	11.082054138183594	38.908470153808594	-317.8070983886719	-11.512349128723145	-38.284305572509766	-299.6261291503906	-0.0	-0.0	-0.0	-0.0	-0.0	-0.0	76167.890625	32821.375	-7990.83349609375
0.6605	-0.0	-0.0	-0.0	11.10960292816162	38.771728515625	-319.3847351074219	-11.416125297546388	-38.541690826416016	-299.57208251953125	-0.0	-0.0	-0.0	-0.0	-0.0	-0.0	75852.109375	32388.38671875	-8077.3095703125
0.661	-0.0	-0.0	-0.0	10.9589204788208	39.01119613647461	-322.6618347167969	-11.191410064697266	-38.461307525634766	-298.2845153808594	-0.0	-0.0	-0.0	-0.0	-0.0	-0.0	75628.234375	31751.591796875	-7912.99462890625
0.6615	-0.0	-0.0	-0.0	11.090209007263184	38.743648529052734	-322.47265625	-11.102779388427734	-38.25205993652344	-296.59423828125	-0.0	-0.0	-0.0	-0.0	-0.0	-0.0	75108.125	31367.18359375	-7848.9189453125
0.662	-0.0	-0.0	-0.0	11.357943534851074	39.1610107421875	-321.096435546875	-11.098014831542969	-38.2572135925293	-295.5284423828125	-0.0	-0.0	-0.0	-0.0	-0.0	-0.0	74711.6640625	30727.384765625	-7803.61572265625
0.6625	-0.0	-0.0	-0.0	10.354434967041016	38.96824264526367	-322.2847900390625	-11.028267860412598	-38.847537994384766	-294.22412109375	-0.0	-0.0	-0.0	-0.0	-0.0	-0.0	74416.6875	30421.763671875	-7760.02490234375
0.663	-0.0	-0.0	-0.0	11.70082950592041	38.9035758972168	-322.10009765625	-11.20974826812744	-38.56844329833984	-293.4696960449219	-0.0	-0.0	-0.0	-0.0	-0.0	-0.0	73959.484375	29606.435546875	-7671.09130859375
0.6635	-0.0	-0.0	-0.0	11.222832679748535	38.6363410949707	-324.93896484375	-10.82634162902832	-38.19732666015625	-292.0724792480469	-0.0	-0.0	-0.0	-0.0	-0.0	-0.0	73174.6796875	29027.025390625	-7497.48193359375
0.664	-0.0	-0.0	-0.0	11.329734802246094	38.72571563720703	-325.7572937011719	-10.24453067779541	-38.16917037963867	-289.3344421386719	-0.0	-0.0	-0.0	-0.0	-0.0	-0.0	73033.6875	28572.369140625	-7149.6123046875
